# xmcd
#
# Track frame offsets:
#	150
#	11959
#	19642
#	37349
#	45744
#	54520
#	68880
#	71452
#	79786
#	89257
#	102133
#	113614
#
# Disc length: 1735 seconds
#
# Revision: 1
# Processed by: cddbd v1.5.1PL0 Copyright (c) Steve Scherf et al.
# Submitted via: EasyCDDAExtractor 5.0.6
#
DISCID=9906c50c
DTITLE=No Through Road - Someone Else's Song
DYEAR=2004
DGENRE=Indie
TTITLE0=Hey Ya! (Outkast)
TTITLE1=Somewhere In The Night (Smog)
TTITLE2=Suicide Is Painless (Mash Theme)
TTITLE3=12.51 (The Strokes)
TTITLE4=I Send My Love To You (Palace Brothers)
TTITLE5=Cold As Ice (Foreigner)
TTITLE6=Sing (The Carpenters)
TTITLE7=I Felt My Size (The Microphones)
TTITLE8=Without You (Badfinger)
TTITLE9=You're So Great (Blur)
TTITLE10=All Is Full Of Love (Bjork)
TTITLE11=Here (Pavement)
EXTD=
EXTT0=
EXTT1=
EXTT2=
EXTT3=
EXTT4=
EXTT5=
EXTT6=
EXTT7=
EXTT8=
EXTT9=
EXTT10=
EXTT11=
PLAYORDER=
